<svg width="236" height="64" viewBox="0 0 236 64" fill="none" xmlns="http://www.w3.org/2000/svg">
<path d="M0.92 7.208V3.56H22.872C26.584 3.56 29.9547 4.072 32.984 5.096C36.056 6.07733 38.7013 7.54933 40.92 9.512C43.1813 11.432 44.9307 13.8 46.168 16.616C47.4053 19.432 48.024 22.6107 48.024 26.152C48.024 29.6933 47.4053 32.872 46.168 35.688C44.9307 38.504 43.1813 40.9147 40.92 42.92C38.7013 44.8827 36.056 46.3973 32.984 47.464C29.9547 48.488 26.584 49 22.872 49H0.92V45.352H1.56C2.62667 45.352 3.52267 45.2027 4.248 44.904C4.97333 44.6053 5.336 43.9867 5.336 43.048V9.512C5.336 8.616 4.97333 8.01867 4.248 7.72C3.52267 7.37866 2.62667 7.208 1.56 7.208H0.92ZM22.552 7.848H17.688V44.712H22.552C24.4293 44.712 26.136 44.328 27.672 43.56C29.208 42.7493 30.5307 41.5547 31.64 39.976C32.7493 38.3973 33.6027 36.456 34.2 34.152C34.7973 31.848 35.096 29.1813 35.096 26.152C35.096 23.1227 34.7973 20.4773 34.2 18.216C33.6027 15.912 32.7493 13.992 31.64 12.456C30.5307 10.92 29.208 9.768 27.672 9C26.136 8.232 24.4293 7.848 22.552 7.848ZM64.196 32.68C64.196 34.728 64.3667 36.5413 64.708 38.12C65.092 39.656 65.6467 40.9573 66.372 42.024C67.0973 43.048 68.0147 43.816 69.124 44.328C70.2333 44.84 71.5347 45.096 73.028 45.096C74.564 45.096 75.908 44.8187 77.06 44.264C78.212 43.6667 79.2147 42.8987 80.068 41.96C80.9213 40.9787 81.6253 39.976 82.18 38.952L85.7 41.384C84.8467 43.0053 83.7587 44.456 82.436 45.736C81.1133 46.9733 79.5133 47.9333 77.636 48.616C75.8013 49.2987 73.6253 49.64 71.108 49.64C67.396 49.64 64.132 48.9573 61.316 47.592C58.5 46.2267 56.324 44.264 54.788 41.704C53.252 39.144 52.484 36.1147 52.484 32.616C52.484 29.16 53.2307 26.152 54.724 23.592C56.26 20.9893 58.3507 18.984 60.996 17.576C63.6413 16.1253 66.628 15.4 69.956 15.4C72.6013 15.4 74.9267 15.784 76.932 16.552C78.98 17.32 80.6867 18.472 82.052 20.008C83.46 21.544 84.5053 23.464 85.188 25.768C85.9133 28.0293 86.276 30.6747 86.276 33.704H61.508L61.444 29.736H76.868L75.46 31.208C75.4173 28.9893 75.2893 27.1333 75.076 25.64C74.8627 24.1467 74.5427 22.9733 74.116 22.12C73.6893 21.224 73.156 20.6053 72.516 20.264C71.876 19.88 71.108 19.688 70.212 19.688C69.316 19.688 68.5053 19.9227 67.78 20.392C67.0547 20.8613 66.4147 21.6293 65.86 22.696C65.348 23.72 64.9427 25.064 64.644 26.728C64.3453 28.3493 64.196 30.3333 64.196 32.68ZM104.389 1.64V43.688C104.389 44.456 104.709 44.968 105.349 45.224C105.989 45.4373 106.778 45.544 107.717 45.544H107.781V49H89.2845V45.544H89.3485C90.3298 45.544 91.1192 45.4373 91.7165 45.224C92.3565 44.968 92.6765 44.456 92.6765 43.688V7.4C92.6765 6.97333 92.5698 6.632 92.3565 6.376C92.1858 6.12 91.8872 5.90666 91.4605 5.736C91.0765 5.56533 90.5432 5.416 89.8605 5.288L89.2845 5.16V1.64H104.389ZM119.438 11.432C117.475 11.432 115.918 10.984 114.766 10.088C113.657 9.14933 113.102 7.848 113.102 6.184C113.102 4.52 113.657 3.24 114.766 2.344C115.918 1.40533 117.475 0.935997 119.438 0.935997C121.358 0.935997 122.873 1.40533 123.982 2.344C125.134 3.24 125.71 4.52 125.71 6.184C125.71 7.848 125.134 9.14933 123.982 10.088C122.873 10.984 121.358 11.432 119.438 11.432ZM125.39 16.04V43.688C125.39 44.456 125.71 44.968 126.35 45.224C126.99 45.4373 127.779 45.544 128.718 45.544H128.782V49H110.286V45.544H110.35C111.331 45.544 112.142 45.4373 112.782 45.224C113.422 44.968 113.742 44.456 113.742 43.688V21.864C113.742 21.1813 113.507 20.712 113.038 20.456C112.611 20.1573 111.886 19.9013 110.862 19.688L110.286 19.56V16.04H125.39ZM151.376 41.384C151.376 40.616 151.184 39.9973 150.8 39.528C150.416 39.016 149.861 38.5893 149.136 38.248C148.411 37.9067 147.579 37.608 146.64 37.352C145.701 37.0533 144.677 36.7547 143.568 36.456C142.288 36.1147 140.987 35.7093 139.664 35.24C138.384 34.7707 137.189 34.152 136.08 33.384C134.971 32.616 134.075 31.6133 133.392 30.376C132.752 29.1387 132.432 27.6027 132.432 25.768C132.432 23.5067 133.029 21.608 134.224 20.072C135.419 18.4933 137.104 17.2987 139.28 16.488C141.456 15.6773 143.973 15.272 146.832 15.272C149.179 15.272 151.205 15.464 152.912 15.848C154.619 16.1893 156.005 16.616 157.072 17.128C158.139 17.5973 158.864 17.9813 159.248 18.28V24.744H151.376V18.728C151.931 18.728 152.357 18.8347 152.656 19.048C152.955 19.2187 153.147 19.4533 153.232 19.752C153.36 20.0507 153.403 20.3707 153.36 20.712C153.317 21.0107 153.232 21.3093 153.104 21.608C152.635 21.096 152.101 20.6693 151.504 20.328C150.907 19.9867 150.224 19.7307 149.456 19.56C148.731 19.3893 147.899 19.304 146.96 19.304C145.253 19.304 143.952 19.6453 143.056 20.328C142.203 21.0107 141.776 21.9067 141.776 23.016C141.776 23.784 141.989 24.424 142.416 24.936C142.843 25.448 143.44 25.896 144.208 26.28C144.976 26.6213 145.851 26.9413 146.832 27.24C147.813 27.496 148.88 27.7947 150.032 28.136C151.355 28.4773 152.699 28.8827 154.064 29.352C155.429 29.8213 156.667 30.44 157.776 31.208C158.885 31.976 159.781 32.9573 160.464 34.152C161.147 35.304 161.488 36.7333 161.488 38.44C161.488 40.8293 160.869 42.856 159.632 44.52C158.437 46.184 156.667 47.464 154.32 48.36C151.973 49.2133 149.072 49.64 145.616 49.64C143.312 49.64 141.221 49.448 139.344 49.064C137.467 48.7227 135.867 48.2747 134.544 47.72C133.221 47.1653 132.197 46.6533 131.472 46.184V39.08H139.6V46.696C138.96 46.3973 138.469 46.056 138.128 45.672C137.787 45.288 137.552 44.904 137.424 44.52C137.296 44.136 137.275 43.7947 137.36 43.496C137.445 43.1973 137.616 42.984 137.872 42.856C138.469 43.496 139.152 44.0293 139.92 44.456C140.688 44.84 141.541 45.1173 142.48 45.288C143.419 45.4587 144.443 45.544 145.552 45.544C146.789 45.544 147.835 45.3947 148.688 45.096C149.541 44.7973 150.203 44.328 150.672 43.688C151.141 43.048 151.376 42.28 151.376 41.384ZM186.186 41.704L182.858 48.04L179.914 52.584L166.282 21.608C166.026 21.0533 165.749 20.6267 165.45 20.328C165.194 19.9867 164.853 19.752 164.426 19.624C163.999 19.496 163.466 19.432 162.826 19.432H162.762V16.04H181.642V19.432H181.578C180.938 19.432 180.298 19.4533 179.658 19.496C179.061 19.5387 178.549 19.6027 178.122 19.688C177.738 19.7733 177.546 19.9013 177.546 20.072L186.186 41.704ZM185.162 48.424C184.01 51.1547 182.837 53.5013 181.642 55.464C180.49 57.4693 179.317 59.0907 178.122 60.328C176.97 61.5653 175.733 62.4613 174.41 63.016C173.087 63.6133 171.679 63.912 170.186 63.912C168.991 63.912 167.967 63.784 167.114 63.528C166.261 63.272 165.599 62.9733 165.13 62.632V54.376C165.301 54.4187 165.685 54.568 166.282 54.824C166.879 55.08 167.626 55.3147 168.522 55.528C169.418 55.784 170.378 55.912 171.402 55.912C172.426 55.912 173.365 55.784 174.218 55.528C175.114 55.3147 175.946 54.9093 176.714 54.312C177.482 53.7147 178.229 52.8613 178.954 51.752C179.679 50.6853 180.362 49.32 181.002 47.656L182.41 44.392L192.394 20.84C192.394 20.5413 192.202 20.3067 191.818 20.136C191.477 19.9227 191.007 19.752 190.41 19.624C189.855 19.496 189.237 19.432 188.554 19.432H188.362V16.04H200.01V19.432H199.946C199.391 19.432 198.901 19.5173 198.474 19.688C198.047 19.8587 197.663 20.1573 197.322 20.584C196.981 21.0107 196.639 21.608 196.298 22.376L185.162 48.424ZM222.613 29.16L222.549 32.616C221.098 32.7867 219.797 33.0427 218.645 33.384C217.493 33.6827 216.49 34.0453 215.637 34.472C214.784 34.8987 214.08 35.4107 213.525 36.008C212.97 36.5627 212.565 37.2027 212.309 37.928C212.053 38.6533 211.925 39.4427 211.925 40.296C211.925 41.32 212.074 42.1947 212.373 42.92C212.714 43.6027 213.184 44.1147 213.781 44.456C214.378 44.7973 215.082 44.968 215.893 44.968C216.874 44.968 217.749 44.712 218.517 44.2C219.328 43.6453 220.053 42.8987 220.693 41.96C221.333 40.9787 221.888 39.848 222.357 38.568L222.741 42.088C222.186 43.6667 221.397 45.032 220.373 46.184C219.392 47.2933 218.176 48.1467 216.725 48.744C215.274 49.3413 213.589 49.64 211.669 49.64C209.493 49.64 207.594 49.32 205.973 48.68C204.394 47.9973 203.178 46.9947 202.325 45.672C201.472 44.3493 201.045 42.7493 201.045 40.872C201.045 39.08 201.493 37.544 202.389 36.264C203.328 34.984 204.693 33.896 206.485 33C208.32 32.104 210.581 31.3573 213.269 30.76C215.957 30.12 219.072 29.5867 222.613 29.16ZM221.845 49V42.792L221.141 42.856V24.68C221.141 23.4853 220.949 22.504 220.565 21.736C220.224 20.968 219.712 20.4133 219.029 20.072C218.346 19.7307 217.45 19.56 216.341 19.56C214.848 19.56 213.568 19.9013 212.501 20.584C211.477 21.224 210.709 21.992 210.197 22.888C209.941 22.4613 209.813 22.056 209.813 21.672C209.813 21.288 209.898 20.9253 210.069 20.584C210.282 20.2427 210.56 19.9653 210.901 19.752C211.285 19.496 211.733 19.304 212.245 19.176V26.536H203.349V19.624C203.989 19.1547 204.928 18.6 206.165 17.96C207.402 17.2773 208.981 16.68 210.901 16.168C212.821 15.656 215.061 15.4 217.621 15.4C219.84 15.4 221.845 15.6133 223.637 16.04C225.472 16.4667 227.05 17.1493 228.373 18.088C229.696 18.984 230.72 20.1573 231.445 21.608C232.17 23.016 232.533 24.7227 232.533 26.728V43.496C232.533 43.9227 232.64 44.264 232.853 44.52C233.109 44.776 233.45 44.968 233.877 45.096C234.346 45.224 234.901 45.3093 235.541 45.352L235.861 45.48V49H221.845Z" fill="#F6ECEB"/>
</svg>
