<svg width="602" height="99" viewBox="0 0 602 99" fill="none" xmlns="http://www.w3.org/2000/svg">
<rect width="602" height="99" fill="#ECDAD9"/>
<path d="M101.216 33.304V39.88H92.288V67H84.08V39.88H75.152V33.304H101.216ZM130.583 53.176C130.583 53.944 130.535 54.744 130.439 55.576H111.863C111.991 57.24 112.519 58.52 113.447 59.416C114.407 60.28 115.575 60.712 116.951 60.712C118.999 60.712 120.423 59.848 121.223 58.12H129.959C129.511 59.88 128.695 61.464 127.511 62.872C126.359 64.28 124.903 65.384 123.143 66.184C121.383 66.984 119.415 67.384 117.239 67.384C114.615 67.384 112.279 66.824 110.231 65.704C108.183 64.584 106.583 62.984 105.431 60.904C104.279 58.824 103.703 56.392 103.703 53.608C103.703 50.824 104.263 48.392 105.383 46.312C106.535 44.232 108.135 42.632 110.183 41.512C112.231 40.392 114.583 39.832 117.239 39.832C119.831 39.832 122.135 40.376 124.151 41.464C126.167 42.552 127.735 44.104 128.855 46.12C130.007 48.136 130.583 50.488 130.583 53.176ZM122.183 51.016C122.183 49.608 121.703 48.488 120.743 47.656C119.783 46.824 118.583 46.408 117.143 46.408C115.767 46.408 114.599 46.808 113.639 47.608C112.711 48.408 112.135 49.544 111.911 51.016H122.183ZM133.282 53.56C133.282 50.808 133.794 48.392 134.818 46.312C135.874 44.232 137.298 42.632 139.09 41.512C140.882 40.392 142.882 39.832 145.09 39.832C146.978 39.832 148.626 40.216 150.034 40.984C151.474 41.752 152.578 42.76 153.346 44.008V40.216H161.554V67H153.346V63.208C152.546 64.456 151.426 65.464 149.986 66.232C148.578 67 146.93 67.384 145.042 67.384C142.866 67.384 140.882 66.824 139.09 65.704C137.298 64.552 135.874 62.936 134.818 60.856C133.794 58.744 133.282 56.312 133.282 53.56ZM153.346 53.608C153.346 51.56 152.77 49.944 151.618 48.76C150.498 47.576 149.122 46.984 147.49 46.984C145.858 46.984 144.466 47.576 143.314 48.76C142.194 49.912 141.634 51.512 141.634 53.56C141.634 55.608 142.194 57.24 143.314 58.456C144.466 59.64 145.858 60.232 147.49 60.232C149.122 60.232 150.498 59.64 151.618 58.456C152.77 57.272 153.346 55.656 153.346 53.608ZM201.668 39.928C204.996 39.928 207.636 40.936 209.588 42.952C211.572 44.968 212.564 47.768 212.564 51.352V67H204.404V52.456C204.404 50.728 203.94 49.4 203.012 48.472C202.116 47.512 200.868 47.032 199.268 47.032C197.668 47.032 196.404 47.512 195.476 48.472C194.58 49.4 194.132 50.728 194.132 52.456V67H185.972V52.456C185.972 50.728 185.508 49.4 184.58 48.472C183.684 47.512 182.436 47.032 180.836 47.032C179.236 47.032 177.972 47.512 177.044 48.472C176.148 49.4 175.7 50.728 175.7 52.456V67H167.492V40.216H175.7V43.576C176.532 42.456 177.62 41.576 178.964 40.936C180.308 40.264 181.828 39.928 183.524 39.928C185.54 39.928 187.332 40.36 188.9 41.224C190.5 42.088 191.748 43.32 192.644 44.92C193.572 43.448 194.836 42.248 196.436 41.32C198.036 40.392 199.78 39.928 201.668 39.928ZM256.752 40.216L249.504 67H240.432L236.208 49.624L231.84 67H222.816L215.52 40.216H223.728L227.52 59.368L232.032 40.216H240.72L245.28 59.272L249.024 40.216H256.752ZM272.074 67.384C269.45 67.384 267.082 66.824 264.97 65.704C262.89 64.584 261.242 62.984 260.026 60.904C258.842 58.824 258.25 56.392 258.25 53.608C258.25 50.856 258.858 48.44 260.074 46.36C261.29 44.248 262.954 42.632 265.066 41.512C267.178 40.392 269.546 39.832 272.17 39.832C274.794 39.832 277.162 40.392 279.274 41.512C281.386 42.632 283.05 44.248 284.266 46.36C285.482 48.44 286.09 50.856 286.09 53.608C286.09 56.36 285.466 58.792 284.218 60.904C283.002 62.984 281.322 64.584 279.178 65.704C277.066 66.824 274.698 67.384 272.074 67.384ZM272.074 60.28C273.642 60.28 274.97 59.704 276.058 58.552C277.178 57.4 277.738 55.752 277.738 53.608C277.738 51.464 277.194 49.816 276.106 48.664C275.05 47.512 273.738 46.936 272.17 46.936C270.57 46.936 269.242 47.512 268.186 48.664C267.13 49.784 266.602 51.432 266.602 53.608C266.602 55.752 267.114 57.4 268.138 58.552C269.194 59.704 270.506 60.28 272.074 60.28ZM298.653 44.68C299.613 43.208 300.813 42.056 302.253 41.224C303.693 40.36 305.293 39.928 307.053 39.928V48.616H304.797C302.749 48.616 301.213 49.064 300.189 49.96C299.165 50.824 298.653 52.36 298.653 54.568V67H290.445V40.216H298.653V44.68ZM327.344 67L319.184 55.768V67H310.976V31.48H319.184V51.112L327.296 40.216H337.424L326.288 53.656L337.52 67H327.344ZM376.5 44.152C376.5 46.104 376.052 47.896 375.156 49.528C374.26 51.128 372.884 52.424 371.028 53.416C369.172 54.408 366.868 54.904 364.116 54.904H359.028V67H350.82V33.304H364.116C366.804 33.304 369.076 33.768 370.932 34.696C372.788 35.624 374.18 36.904 375.108 38.536C376.036 40.168 376.5 42.04 376.5 44.152ZM363.492 48.376C365.06 48.376 366.228 48.008 366.996 47.272C367.764 46.536 368.148 45.496 368.148 44.152C368.148 42.808 367.764 41.768 366.996 41.032C366.228 40.296 365.06 39.928 363.492 39.928H359.028V48.376H363.492ZM388.981 44.68C389.941 43.208 391.141 42.056 392.581 41.224C394.021 40.36 395.621 39.928 397.381 39.928V48.616H395.125C393.077 48.616 391.541 49.064 390.517 49.96C389.493 50.824 388.981 52.36 388.981 54.568V67H380.773V40.216H388.981V44.68ZM413.496 67.384C410.872 67.384 408.504 66.824 406.392 65.704C404.312 64.584 402.664 62.984 401.448 60.904C400.264 58.824 399.672 56.392 399.672 53.608C399.672 50.856 400.28 48.44 401.496 46.36C402.712 44.248 404.376 42.632 406.488 41.512C408.6 40.392 410.968 39.832 413.592 39.832C416.216 39.832 418.584 40.392 420.696 41.512C422.808 42.632 424.472 44.248 425.688 46.36C426.904 48.44 427.512 50.856 427.512 53.608C427.512 56.36 426.888 58.792 425.64 60.904C424.424 62.984 422.744 64.584 420.6 65.704C418.488 66.824 416.12 67.384 413.496 67.384ZM413.496 60.28C415.064 60.28 416.392 59.704 417.48 58.552C418.6 57.4 419.16 55.752 419.16 53.608C419.16 51.464 418.616 49.816 417.528 48.664C416.472 47.512 415.16 46.936 413.592 46.936C411.992 46.936 410.664 47.512 409.608 48.664C408.552 49.784 408.024 51.432 408.024 53.608C408.024 55.752 408.536 57.4 409.56 58.552C410.616 59.704 411.928 60.28 413.496 60.28ZM435.947 37.432C434.507 37.432 433.323 37.016 432.395 36.184C431.499 35.32 431.051 34.264 431.051 33.016C431.051 31.736 431.499 30.68 432.395 29.848C433.323 28.984 434.507 28.552 435.947 28.552C437.355 28.552 438.507 28.984 439.403 29.848C440.331 30.68 440.795 31.736 440.795 33.016C440.795 34.264 440.331 35.32 439.403 36.184C438.507 37.016 437.355 37.432 435.947 37.432ZM440.075 70.456C440.075 73.752 439.243 76.12 437.579 77.56C435.915 79.032 433.595 79.768 430.619 79.768H427.403V72.808H429.371C430.267 72.808 430.907 72.632 431.291 72.28C431.675 71.928 431.867 71.352 431.867 70.552V40.216H440.075V70.456ZM471.224 53.176C471.224 53.944 471.176 54.744 471.08 55.576H452.504C452.632 57.24 453.16 58.52 454.088 59.416C455.048 60.28 456.216 60.712 457.592 60.712C459.64 60.712 461.064 59.848 461.864 58.12H470.6C470.152 59.88 469.336 61.464 468.152 62.872C467 64.28 465.544 65.384 463.784 66.184C462.024 66.984 460.056 67.384 457.88 67.384C455.256 67.384 452.92 66.824 450.872 65.704C448.824 64.584 447.224 62.984 446.072 60.904C444.92 58.824 444.344 56.392 444.344 53.608C444.344 50.824 444.904 48.392 446.024 46.312C447.176 44.232 448.776 42.632 450.824 41.512C452.872 40.392 455.224 39.832 457.88 39.832C460.472 39.832 462.776 40.376 464.792 41.464C466.808 42.552 468.376 44.104 469.496 46.12C470.648 48.136 471.224 50.488 471.224 53.176ZM462.824 51.016C462.824 49.608 462.344 48.488 461.384 47.656C460.424 46.824 459.224 46.408 457.784 46.408C456.408 46.408 455.24 46.808 454.28 47.608C453.352 48.408 452.776 49.544 452.552 51.016H462.824ZM473.922 53.608C473.922 50.824 474.482 48.392 475.602 46.312C476.754 44.232 478.338 42.632 480.354 41.512C482.402 40.392 484.738 39.832 487.362 39.832C490.722 39.832 493.522 40.712 495.762 42.472C498.034 44.232 499.522 46.712 500.226 49.912H491.49C490.754 47.864 489.33 46.84 487.218 46.84C485.714 46.84 484.514 47.432 483.618 48.616C482.722 49.768 482.274 51.432 482.274 53.608C482.274 55.784 482.722 57.464 483.618 58.648C484.514 59.8 485.714 60.376 487.218 60.376C489.33 60.376 490.754 59.352 491.49 57.304H500.226C499.522 60.44 498.034 62.904 495.762 64.696C493.49 66.488 490.69 67.384 487.362 67.384C484.738 67.384 482.402 66.824 480.354 65.704C478.338 64.584 476.754 62.984 475.602 60.904C474.482 58.824 473.922 56.392 473.922 53.608ZM519.545 60.04V67H515.369C512.393 67 510.073 66.28 508.409 64.84C506.745 63.368 505.913 60.984 505.913 57.688V47.032H502.649V40.216H505.913V33.688H514.121V40.216H519.497V47.032H514.121V57.784C514.121 58.584 514.313 59.16 514.697 59.512C515.081 59.864 515.721 60.04 516.617 60.04H519.545ZM535.013 67.384C532.677 67.384 530.597 66.984 528.773 66.184C526.949 65.384 525.509 64.296 524.453 62.92C523.397 61.512 522.805 59.944 522.677 58.216H530.789C530.885 59.144 531.317 59.896 532.085 60.472C532.853 61.048 533.797 61.336 534.917 61.336C535.941 61.336 536.725 61.144 537.269 60.76C537.845 60.344 538.133 59.816 538.133 59.176C538.133 58.408 537.733 57.848 536.933 57.496C536.133 57.112 534.837 56.696 533.045 56.248C531.125 55.8 529.525 55.336 528.245 54.856C526.965 54.344 525.861 53.56 524.933 52.504C524.005 51.416 523.541 49.96 523.541 48.136C523.541 46.6 523.957 45.208 524.789 43.96C525.653 42.68 526.901 41.672 528.533 40.936C530.197 40.2 532.165 39.832 534.437 39.832C537.797 39.832 540.437 40.664 542.357 42.328C544.309 43.992 545.429 46.2 545.717 48.952H538.133C538.005 48.024 537.589 47.288 536.885 46.744C536.213 46.2 535.317 45.928 534.197 45.928C533.237 45.928 532.501 46.12 531.989 46.504C531.477 46.856 531.221 47.352 531.221 47.992C531.221 48.76 531.621 49.336 532.421 49.72C533.253 50.104 534.533 50.488 536.261 50.872C538.245 51.384 539.861 51.896 541.109 52.408C542.357 52.888 543.445 53.688 544.373 54.808C545.333 55.896 545.829 57.368 545.861 59.224C545.861 60.792 545.413 62.2 544.517 63.448C543.653 64.664 542.389 65.624 540.725 66.328C539.093 67.032 537.189 67.384 535.013 67.384Z" fill="black"/>
</svg>
